<?xml version="1.0" standalone="no"?>
<!DOCTYPE svg PUBLIC "-//W3C//DTD SVG 1.1//EN" "http://www.w3.org/Graphics/SVG/1.1/DTD/svg11.dtd">
<svg xmlns="http://www.w3.org/2000/svg" width="1000" height="667" viewBox="0 0 1000 667"><path fill="#F7F9F9" stroke="#F7F9F9" d="m235 250 5 3.5q-.7 2.3 1.5 1.5l89.5 86.5-8.5-7.5-1.5.5-13.5-14.5-25.5-23.5q.8-2.2-1.5-1.5l-40-39H239q1.1-2.7-1.5-2l-1.5-.5.5 89.5 1-2 1.5.5.5-2.5 1 3 3.5-.5q-.7 2.3 1.5 1.5l4.5 1 .5 2 1-1 2.5 1.5 2-7-1-2 1-5-1-4 1-1v-18l-1-2 1-5q-1.5-4.4 1.5-3.5l-.5 1.5v65l-1.5 1.5-2-1-3 1-2-1-1 1h-11q-4.3-1.8-1.5-3.5V250ZM359.5 251l12.5.5-12.5.5v-1ZM374.5 251l18.5.5-18.5.5v-1ZM395.5 251l2.5.5-2.5.5v-1ZM399.5 251l8.5.5-8.5.5v-1ZM414.5 251l2.5 1.5v18l-1.5 1.5-63.5-.5 64-.5v-18.5l-1.5-.5v-1ZM344.5 252l3.5.5-3.5.5v-1ZM330.5 258l-1 2 1-2ZM327.5 260l-7 8 7-8ZM458.5 268h9l24 24 .5-21.5 2.5-2.5q6-1.5 7.5 1.5v34l-.5.5h-11l-23-24-.5 24h-9.5l-.5-.5v-34l1.5-1.5Zm-.5 2v32h5l1-2 1 2v-25q3-1 2 2l7 6q-1 2 2 1l2 4 4 2v2l10 9 3-1 5 1v-33h-5l-1 1v25h-2v-2q-3 1-2-1l-22-23h-10ZM517.5 268h36l1.5 1.5v6.5h-29.5l-.5.5v5.5h23.5l.5.5v6.5h-24v8h29.5l.5.5v6.5h-40v-35l2.5-1Zm-.5 2v33l4-1h31l1 1v-5l-1 1h-26l-2-1v-10h12l1-1 2 1q1-2 7-1l1 1v-4h-23v-10h29v-4h-36ZM568.5 268q6-1.5 7.5 1.5V297h24.5q2.5 1 1.5 5.5l-1.5 1.5H566v-34.5l1.5-.5 1-1Zm-.5 2 1 33 1-1h30v-4l-1 1h-24l-1-3v-2l1-4-1-1v-16l-1-1 2-1-7-1ZM619.5 268h27l1.5 1.5v6.5h-28.5q-1 0-.5 4.5l1.5 1.5h19q6.6.9 9.5 5.5l1 9-5.5 6.5-3 1H610v-6.5l.5-.5h27q3.5-1.3 2.5-6l-2.5-1h-18q-6.6-.9-9.5-5.5l-1-9 4.5-5.5 6-2Zm.5 2-6 2-4 7 1 5 3 2 6 2h17l3 1 2 4-1 4-5 2h-22v2l-1-3-2 3 1 2 3-1h28l2-1q2-1 0-2-1-3 3-2v-6h-2l1-3-6-4h-19l-2-1q-4-1-3-7l4-2h25v-4h-26ZM671.5 268h11l1 1 1-1h11q6.9 1.6 10.5 6.5l2 4v16l-4.5 6.5-6 3h-28l-8.5-5.5-3-8v-6q2.3-1.2 1-6l5.5-7.5 7-3Zm-.5 2-5 2q-5 3-6 10-1 9 2 15 2 4 4 1l-1 2 4 2q4-1 6 1l3-1 5 1 18-2q5-3 6-10 1-11-3-16l-2-3-6-2h-25ZM721.5 268h9l10.5 9.5 2 3 13 12v-23l1.5-1.5q6.8-1.7 8.5 1.5v34l-1.5.5h-8q-4.4 1.5-3.5-1.5l-23-22V304h-10v-34.5l1.5-1.5Zm.5 2v19l-1 1 1 2v2l-1 4 1 4v1l3-1h3v-24l2-1 24 24 1-1 1 3 2-1 4 1h2v-33h-7v26l-18-18-7-8h-10ZM319.5 269l-1 2 1-2ZM317.5 272l-.5 1.5-1.5 3.5-.5-1.5 2.5-3.5ZM347.5 272l2.5.5-2.5.5v-1ZM345.5 273l-1 2-3 2 2-3 2-1Z"/><path fill="#F7F9F9" stroke="#F7F9F9" d="M675.5 274h16l6.5 3.5q3.7 4.3 2 14l-5.5 6.5-17 1-5-1-3.5-2.5-3-10 2-7 2.5-2.5 5-2Zm-.5 2-3 1-4 8 2 9q-1 2 2 1 1 3 3 1l1 1h17l2-1 3-3v-12l-6-5h-17ZM314.5 278l.5 1.5-1.5 3.5-.5-2.5 1.5-2.5ZM337.5 280l-1 2 1-2ZM334.5 285l.5 1.5-1.5 3.5-.5-2.5 1.5-2.5ZM312.5 286l.5 21.5h-1l.5-21.5ZM260.5 302l4.5 3.5 1.5 2.5 2.5 1.5q-.7 2.3 1.5 1.5l34 33 1-4 2.5.5.5 1.5 1-2 2.5 4 4.5-1 4 3 1-8 .5 22.5 1 1-1.5-.5-39.5-36.5-1.5-2.5-3-2-17-18ZM360.5 303h55l1.5 1.5-.5 62.5-.5-63h-55.5v-1ZM313.5 309l19 19 1.5-.5q.8 2.3-1.5 1.5l-19-20ZM466.5 317l2.5.5-2.5.5v-1ZM495.5 317l.5 6.5h-1l.5-6.5ZM558.5 317l.5 31 29 .5-30 .5.5-32ZM587.5 317q3.8-.7 4.5 1.5l-1.5-.5q-4 .8-3-1ZM638.5 317l2.5.5-2.5.5v-1ZM463.5 318l1.5.5-2.5 1.5 1-2ZM642.5 318l1 2-1-2ZM660.5 318l.5 30 8 .5-9 .5.5-31ZM520.5 319l-1 2 1-2ZM533.5 319l1 2-1-2Z"/><path fill="#F7F9F9" stroke="#F7F9F9" d="m359.5 320 .5 2 31 .5-30.5.5-1-3ZM392.5 322l.5 23.5h-1l.5-23.5ZM595.5 322l.5 2.5h-1l.5-2.5ZM567.5 323l17.5.5-17.5.5v-1ZM618 323l13 .5-12 .5-.5 8-.5-9ZM691 323l27 .5-26 .5 1 5.5-2-1V323ZM637.5 324l1.5 2.5h-1l-.5-2.5ZM647.5 324l.5 6.5h-1l.5-6.5ZM467.5 325l-1 2 1-2ZM586.5 325l.5 2.5-2 1 1.5-3.5ZM516.5 326l-.5 1.5-1.5 2.5.5-1.5 1.5-2.5ZM465.5 328l.5 2.5h-1l.5-2.5ZM524.5 328l-1 2 1-2ZM494.5 329l1.5 1.5v15l-2 1 1-1v-15l-.5-1.5ZM567.5 329l12.5.5-12.5.5v-1ZM594.5 329l-1 2 1-2ZM703.5 329l2.5.5-2.5.5v-1ZM708.5 329q8.3-2.7 5.5 5.5l-1.5 1.5H692l-.5 6-.5-7h21.5l.5-5h-4.5v-1ZM530.5 330l1 2-1-2ZM475.5 331l.5 5h12v4.5q-1.7 3.3-8.5 1.5v-1h7.5v-4h-10.5l-1.5-1.5.5-4.5ZM591.5 331l2.5 1.5-1.5.5-1-2ZM634.5 331l2.5.5-2.5.5v-1ZM646.5 332l-4 5-1.5-.5 5.5-4.5ZM512.5 333l-1 2 1-2ZM738.5 333l.5 6.5h-1l.5-6.5ZM456.5 334l.5 3.5h-1l.5-3.5ZM465.5 335l1.5 3.5-2-1 .5-2.5ZM520.5 335l13.5.5-13.5.5v-1ZM542.5 335l1 2-1-2ZM596.5 337l.5 4.5h-1l.5-4.5ZM618 338h13.5l1.5 1.5-1.5-.5H619v10h-8.5v-1h7.5v-10ZM642.5 339l6 7-6-7ZM508.5 340l-1 2 1-2ZM587.5 340l-1 2-3.5-.5 4.5-1.5ZM319.5 341l.5 2.5h-1l.5-2.5ZM470.5 341l4.5.5-4.5.5v-1ZM517.5 341l-1 2 1-2ZM536.5 341l1 2-1-2Z"/><path fill="#F7F9F9" stroke="#F7F9F9" d="m693.5 341 24.5.5-24.5.5v-1ZM738.5 341l24.5.5-24.5.5v-1ZM458.5 342l4 5-4-5ZM546.5 342l1 2-1-2ZM635.5 343l3 4-3-4ZM339.5 345l3.5.5-3.5.5v-1ZM592.5 346l-1 2-1.5-.5 2.5-1.5ZM549.5 347l.5 2-10-.5 8.5-.5 1-1ZM650.5 347l.5 2-11-.5 9.5-.5 1-1ZM467.5 348l21.5.5-21.5.5v-1ZM506.5 348l7.5.5-7.5.5v-1ZM683.5 348l34.5.5-34.5.5v-1ZM730.5 348l32.5.5-32.5.5v-1ZM334.5 366l3.5.5-3.5.5v-1Z"/><path fill="#FEFEFE" stroke="#FEFEFE" d="m54.5 6-1 2-1.5-.5L54.5 6ZM709 17l2 .5-2 1V17ZM709.5 22l1 2q-2.8.7-1-2ZM54.5 27l-1 2-1.5-.5 2.5-1.5ZM774.5 36l1 2-1-2ZM54.5 43l-1 2-1.5-.5 2.5-1.5ZM648.5 43l1 2-1-2ZM649.5 69l.5 2.5h-1l.5-2.5ZM55.5 81l-1 2 1-2ZM55.5 86l-1 2 1-2ZM709.5 95l1 2q-2.8.7-1-2ZM55.5 133l.5 2-2-.5 1.5-1.5ZM709.5 137q2.3-.7 1.5 1.5l-1.5-1.5ZM649.5 138l-1 2 1-2ZM709.5 147l1 2q-2.8.7-1-2ZM648.5 163l1 2-1-2ZM709 163l2 .5-2 1V163ZM55.5 175l-1 2 1-2ZM709 189l2 .5-2 1V189ZM54.5 199l-1 2-1.5-.5 2.5-1.5ZM54 202l2 .5-2 1V202ZM709.5 235l1 2q-2.8.7-1-2ZM54 238l2 .5-2 1V238ZM679.5 247l.5 2.5h-1l.5-2.5ZM234.5 250l.5 113.5h-1l.5-113.5ZM344.5 250l10.5 1.5-6.5.5-4-1v-1ZM395.5 250l-1 2-1.5-.5 2.5-1.5ZM413 250l3 .5-2.5 1.5-.5-2ZM54.5 251l-1 2-1.5-.5 2.5-1.5ZM341.5 251l2.5 1.5-1.5-.5-1-1ZM356.5 251l2.5.5-2.5.5v-1ZM408.5 251l2.5.5-2.5.5v-1ZM709.5 251l1 2q-2.8.7-1-2ZM338.5 252l2.5 1.5-1.5.5-1.5-.5-.5 1.5-1-2 2-1ZM236.5 253l2.5 1q-1.1 2.7 1.5 2l3.5 5q2.7-1.1 2 1.5l11 11v1.5l2.5 1 1.5-1.5-1.5-2.5 5.5 5.5-1 1 3.5 4.5-2-1-1.5 2.5 1 6.5-3-.5q2.3-1.3-.5-2.5-3-.9-1.5 3.5l.5 1.5-1.5.5.5 1.5-1.5.5 4 3-6.5.5q-3.2-1.7.5-3.5l-2-3 2-2-1-3 1-5-1.5-.5-2.5 1.5q-.7-2.2 1.5-1.5l1.5-4-4 1.5-2 5.5-3 1.5 2 1q-5.3 2.2-1.5 4.5l1.5.5q-2.7 1.1-2 4.5l2 .5-1 2 1.5-.5 2.5 1.5-2.5 4.5-1.5-.5q-1.3 4.8 2 3.5l.5-2 .5 1.5-.5 1.5 4.5 2.5-1.5-.5q-5.2-1.2-6.5 1.5l4 1-.5 1.5 2-1v2l2.5.5q-1.2 2.8-2.5.5l-2-1-2.5 1.5 1 2.5 4 2.5-2 .5q1.1-2.7-1.5-2v2q-1.8-3.7-3.5-.5l3.5 4.5q2.3-.7 1.5 1.5v2l.5 1.5.5-2h2q-1.3 4.1 2 3l-1-4.5 1-1 .5-10.5.5 10.5v2l-1 4 .5 1.5-2-1-.5 2.5 1.5-.5 1.5.5-2 1q3.5 1.5 1 3l-1.5 6.5q-1.8-3.1-3.5-1.5.9-3-3.5-1.5l-2.5-1-.5-2-3.5.5-.5-2.5-1 3-1.5-.5-.5 1.5-.5-14.5 1-2-.5-1.5 2 1 1.5-4.5-1-3 1-2.5q-3.5-1.1-2 6.5l-2-1 1-9-1-3 1-4-1-3 1-2q-2.2-1.2.5-2.5h1.5v-2q2.7 1.1 2-1.5h-2l-.5-1.5q-2.7 1.3-.5 2.5.8 2.3-1.5 1.5v-5l3.5-.5-4-1 1-4v-2l-1-9 1-5-1-2v-2l1-4-1-3v-2l.5-4.5Zm13.5 14v3l-3 1 3 1-3 1-2 3 5 1-3 4 1 1 2-1 1-2q-1-3 3-2 4-2 1-3 1-3-2-2v-2h-2l-1-3Zm-10 7-2 2h2v-2Zm21 2-2 3 1 5q-3 1 2 3 3 1 2-1l-3-2 1-4q3-2-1-4Zm-21 2v2h-2l1 2 2-1q1-4-1-3Zm3 0 1 2 2-1-3-1Zm21 1q-2 3 1 2l-1-2Zm-25 3 1 4 1-2q1-3-2-2Zm4 0-1 3q-2 1 1 2l2-3-2-2Zm-4 4-1 4h1v-4Zm2 3q0 4 2 1l-2-1Zm1 4 1 3v-2h2l-3-1Zm2 3-1 2 2-1-1-1Zm-5 3-2 4 1 2h2l-1-6Zm10 1-2 3 3-2-1-1Zm-7 1 1 4 1-3-2-1Zm3 3-1 3h1v-3Zm-5 2 1 3v-2h2l-3-1Zm4 1-2 2q-1 2 2 1v-3Zm-5 3v5-3h4l-2-2h-2Zm4 3-1 5h1v-5Zm0 6-1 3h1v-3Zm2 0-1 3h1v-3Zm-4 4 2 4 1-2-3-2Zm6 3-2 2h2v-2Zm-4 2-1 4 2-1-1-3Zm3 2v1h2l-2-1Zm2 2 1 2q1-3-1-2Zm4 0-3 3v2l1 1 2-3v-3ZM333.5 254l2.5 1.5h-2l-.5 1.5h-2L319 267.5l-2 3 .5 1.5q-3.2-1.7.5-3.5l4-5-.5-1.5 1 1 5-5 6-4ZM418.5 254l.5 16.5h-1l.5-16.5ZM55.5 259l.5 2-2-.5 1.5-1.5ZM614.5 266l2 1 2.5-1-.5 3-3-1-1.5.5.5-2.5ZM648 266q3.8-1.5 3 1.5l-1 4v2l-.5 2.5-.5-7-2-.5 1-2.5ZM697.5 266l2.5 3.5h-1q.8-2.2-1.5-1.5l-1.5.5 1.5-2.5ZM668.5 267l2.5 1.5-1.5-.5q-2.2-.7-1.5 1.5l-2-1 2.5-1.5ZM732.5 267q2.3-.7 1.5 1.5l.5 1.5q-1.7-3.1-3.5-1.5l1.5-1.5ZM493.5 268l-1 2 1-2ZM756.5 268l-.5 1.5-.5 22.5q-2.8-1.2-.5-2.5v-20l1.5-1.5ZM54 269q3-1 2 2-3 1-2-2ZM564.5 269l.5 34.5h-1l.5-34.5ZM612.5 269l.5 2-2-.5 1.5-1.5ZM664.5 269l1 2q-4.5-.5-5 3l4-5ZM702.5 269l2 3q-1.8-3.1-3.5-1.5l1.5-1.5ZM718.5 269l.5 35.5h-1l.5-35.5ZM456.5 270l.5 18.5h-1l.5-18.5ZM495.5 270h2l2.5 1.5-2 3 1 3v16l-1 1 2 3-1 2 1 3h-1l-.5-1.5-7.5 2 1-6q-3.8-1.5-3 1.5l-1.5-.5-5.5-4.5q.8-2.2-1.5-1.5l-2-3 1.5.5.5-2.5 1 3 1.5-2.5-3.5-4.5 10.5 9.5-.5 3.5q2.3.8 1.5-1.5h1q-.7 2.3 1.5 1.5l3.5-1.5-2-3v-2l1-5-1-1v-11l-1-1 1.5-1.5Zm-9.5 21-1 3v1h4l-3-2v-2Zm7 9 1 2q1-3-1-2ZM518.5 270l1 1h28l4-1q2.8 1.3.5 2.5l-.5 1.5-4-2-5 2-4-2-5 2v-2l-5 1-2-1h-2q-5.9-2.1-4.5 2.5l-1 2.5 4-1v7.5l1.5 1.5 4 1 2-1 4 1 1-1H547l-.5 3q-1.5-2.5-7-1h-2l-2 1H524l-.5-3-3 2-1.5-.5 2 5-2 3q3.5 1.5 1 3l-1 4 .5 1.5-1.5-.5.5-32.5Zm2.5 8-1 2v1q2-1 1 2h-2l1 3 2-1q1-5-1-7ZM569.5 270l2 1 3-1v1l-1.5.5 1 1v13l1 4-1 4v2l2.5 4.5h12l1-1q1.7 2.8 8 1l2.5-1.5-1.5 3.5-4-1h-2l-4 1-5-1-2 1-2-1-2 1-2-1-6.5 1 .5-32Zm1.5 21 1 4q2-1 0-2 1-3-1-2ZM619.5 270l1 1h9l3-1q3.5 2.5 11 1 1.3-2.2 2.5.5l-1.5 2.5-8-2-3 2-1-1H620l-1 2.5 2.5 1.5 25.5.5-26.5.5-3.5-2q-1 5.7 2.5 8 1.5-2.5 3 1 8.2 1.7 12-1l4 1 2-1 3.5 1 .5 3 1-2 1.5 3.5-1 1 1.5 2.5-1.5.5 2 .5q1.7 4.1-2.5 3l-2 4-2 1q-1.2-2.3-6-1l-2 1h-2l-5-1-1 1q-8.9-1.4-14 1l-.5-2.5 1.5-2.5 1 3 .5-2 4.5 1q1.8-2.8 8-1l3 1 8-2 2 1v-2q2.6.8 1.5-2.5l1-2-2.5-3.5-3-1h-15l-1-1h-2l-7.5-3-1-5.5q3.5-1.5 1-3l4.5-4.5h2l2-1ZM670.5 270l1 1H696q-.7 3.4 2 4.5l-1.5-.5-3-1q-1.5 2.5-3-1l-3-1H682q1.1 2.7-1.5 2l-3-1q-3.3-1.1-2.5 1.5l-2.5-1.5-1.5.5.5 1.5-6.5 4.5 2 5h-2l2 3-1 3 4.5 6.5q2.3-.7 1.5 1.5l1.5-.5 2 1h2l2 1 2.5-1q-1.5 3.7 1.5 3v1l-6-1-3 1-4-2-2 1-4.5-3.5q-2.8-2-2-6.5l-2-.5 1-2-1-3 1-4q-2.5-1.5 1-3l1-3-.5-1.5 2.5-1.5.5-1.5q2.8 1.3.5 2.5-.8 3 3 1.5l-2-4.5 1.5.5q2.5.7 2-2ZM722.5 270l1 2 8-2 .5 2 7 5.5-1 1 9.5 10.5q-1.7-3.7-3.5-.5l1 2-3.5-2.5q-2.2.8-1.5-1.5l-9-7.5q1.2-3.7-4-2l1 2.5-1 1v18l1 2-6.5 2.5v-1l1.5-.5-1-2 1-3v-2q1.9-5.4-1.5-4.5l.5-1.5 1-3v-4l-1-4 1-2q-2.4-1.4-.5-5.5Zm8.5 4-2 2h2v-2Zm4 0q-2 3 1 2l-1-2Zm-1 4 1 2q1-3-1-2Zm-10 5q-1 3 2 2 1-3-2-2Z"/><path fill="#FEFEFE" stroke="#FEFEFE" d="m758.5 270 3 1q1.3-2.2 2.5.5l-1 3 1 5v11l-1 1 1 2v2l-.5 7.5h-2l-4-1-2.5 1q1.5-3.7-1.5-3l-7-8q4.4-1.5 3.5 1.5-2.3 1.3.5 2.5l1.5-2.5-.5-1.5 5 4 1.5-1.5-1-5 1-5-1-1v-12l1.5-1.5Zm3.5 12-2 2 2 1v-3Zm0 4-2 3 2 1v-4ZM458 271h9.5l10.5 10.5-2 .5-2.5-4-2.5 1.5 3 1.5q1.1 2.7-1.5 2l-4-5-1.5.5.5-1.5-3.5 1.5 1 5v2l-1 5 1 1v8.5q-2.7-1.1-2 1.5l-2.5.5-2.5-.5v-15l1-3-1-1V271Zm7 1-2 2 1 3v-2l5 1-1-2q1-3-3-2Zm-5 8v3q2 1 1-2h2l-3-1Zm1 6-1 4 2-1q2 1 1-2l-2-1Zm0 5-1 5 4 1-1-3h-1l-1-3ZM503.5 271l.5 2.5h-1l.5-2.5ZM513.5 271l.5 3.5h-1l.5-3.5ZM699.5 271l-1 2-1.5-.5 2.5-1.5ZM251.5 272l.5 1.5-2 1 1.5-2.5ZM701.5 272l.5 2q3-1.2 2 2.5l1 4.5 2 .5q-2.8 1.8-1 8l.5 1.5q-2.6-.8-1.5 2.5v2q.8 2.3-1.5 1.5l-3 4q-1.5-2.5-3 1l-9.5-1q-1.7-4.1 2.5-3l2 1 3.5-1 2.5-4-.5 1.5.5 4.5 1-2q1.3 2.3 2.5-.5l2-3-4-8 1-5.5 2-.5-2-1 2-1-3.5-.5-1.5.5 1.5-2.5 2.5 1q1.5-3.7-1.5-3l1-2Zm1.5 17 1 1 1 1q1-3-2-2ZM346.5 273l3 1 5-1v1l-8 1-6.5 4-3.5 7-.5-1.5 5.5-7.5 4.5-2 .5-2ZM314.5 274l-.5 1.5-2.5 9.5-.5-4.5 3.5-6.5ZM477.5 276l1 2-1-2ZM525.5 276l1 1 27.5.5-28 .5-.5 4v-6ZM671.5 277l-1 2 1-2ZM677.5 277l12.5.5-10 .5 1 2.5-3.5-3.5ZM742.5 277l-1 2 1-2ZM480.5 279l3 4-3-4Z"/><path fill="#FEFEFE" stroke="#FEFEFE" d="m695.5 279 2.5 1.5q-1.5 3-3 0l.5-1.5ZM527.5 280l2.5.5-2.5.5v-1ZM658.5 280l.5 3.5h-1l.5-3.5ZM669.5 280l1 2-1-2ZM743.5 280l7.5 6.5-1.5.5-6-7ZM641.5 281l1.5.5-2.5 1.5 1-2ZM648 281l2 .5v2q.7 3-3 1.5l1-4ZM708.5 281l.5 9.5h-1l.5-9.5ZM645.5 282l-1 2 1-2ZM731 282q2.7-1.1 2 1.5l-1 3v16l1 1-2 .5v-22ZM56.5 284l-1 2 1-2ZM267.5 284l1 2 1-2 2 3h1.5v2q2.7-1.1 2 1.5l1 5-3.5-2.5-3.5-1.5 1-2-.5-1.5 2.5 1.5-1.5-2.5q-5.5 1.5-3-3Zm5.5 6-1 2 2-1-1-1ZM475.5 284l3.5 2-.5 2q-2.2-4.2-4.5-2.5l1.5-1.5ZM669.5 284l.5 2.5-2 1 1.5-3.5ZM734.5 284l4.5 5.5h-1l-.5-1.5-2 1v-1l1.5-.5-2-.5-.5-3ZM469.5 285l-1 2 1-2ZM550.5 285l.5 2.5h-1l.5-2.5ZM310.5 286l.5 21.5h-1l.5-21.5ZM487.5 286q2.3-.7 1.5 1.5l-1.5-1.5ZM335.5 287l.5 2.5-1 1-.5 33.5-.5-33.5 1.5-3.5ZM611.5 287q1.8 3.1 3.5 1.5l-1.5 1.5-2-3ZM251 288l2 .5-2 1V288ZM650.5 288l-1 2 1-2ZM522.5 289l.5 2.5h-1l.5-2.5ZM525.5 289h2l4 1 5-1 2.5.5-.5 1.5H526v5.5h-1l.5-7.5ZM542.5 289h2l5.5 1.5-1.5.5-2-1-6 2-.5-2 2.5-1ZM618.5 289l-2 3q-2.6.7-1.5-2l3.5-1ZM456.5 290l.5 2.5h-1l.5-2.5ZM740.5 290l12 13-2.5-.5 1-1-7.5-7.5-1 3-2.5-4.5.5-2.5ZM658.5 291l.5 1.5-2 1 1.5-2.5ZM264.5 292l1.5 4.5-3 5 3 1-1.5 2.5-2-1 1.5 2.5-.5 1.5-3.5-4.5 4-4v-4l.5-3.5ZM267.5 292l1 2-1-2ZM669.5 292l3.5 2.5h-3l.5-1.5-1-1ZM694 292l4 .5-3 2-.5 1.5q-2.7-1.2-.5-2.5V292ZM699.5 292l1 2-1-2ZM251 293l2 .5-4 3q-.7-2.6 2-1.5v-2ZM281.5 293l7 7 1.5-.5v4l3 3 4 5-2 4 1 1v8l-.5 1.5 1.5.5-2 1 2.5 7.5 2.5-1.5.5 2.5.5-8 3-.5-1.5-2.5-1.5.5 2-3h-2q-.7-2.2 1.5-1.5 3-1.5 0-3l-1.5.5.5-2.5 5 5 1.5-1.5-2.5-3.5 3 3 1-1 1.5.5-2 1q3.5 1.5 1 3l10 10 2 5-1.5 8.5-5-3-3.5 1-2.5-4-1 2-1-2-2.5.5-.5 3.5-8-9q-2.2.8-1.5-1.5l-3-1.5q1.1-2.7-1.5-2l-2-1v2q-2.2-4.2-4.5-2.5l1-3-2.5-2.5-2.5 1.5 1-3-1.5-1.5-1.5.5 1-1-2-4 1.5-1.5v2q2.3-.7 1.5 1.5l1.5-.5 3-1v2l3.5-2.5-.5-1.5-2.5 1-1-2.5q2 1.7 4-2l1-2-1.5-2.5-1 3-.5-2.5V302q-2.7 1.1-2-1.5l1-3-2.5-2.5-1.5.5.5-2.5Zm9.5 15v2l-1 3h5l-1-1q1-3-2-2v-2h-1Zm1 7v1h2l-2-1Zm3 1-2 2h2v-2Zm-14 2v3l3 1q2-6-3-4Zm9 0v3l2-1-2-2Zm-5 1v2h3q1-3-3-2Zm8 2 1 4h1q1-5-2-4Zm-7 1 1 1 1 1q1-3-2-2Zm0 2 1 2q1-3-1-2Zm22 1 1 2q1-3-1-2Zm3 3-1 2 4 5 1-4-4-3Zm5 5-1 6h1v-6Zm-4 3q-1 3 2 2 1-3-2-2Zm8 5-1 3h1v-3ZM522.5 293l1 6 1.5-.5 1 3-2.5-1.5-1 1q-2.2.8-1.5-1.5l1-4q-2.2-1.2.5-2.5ZM271.5 294l4.5 4.5v2l-2.5-1.5-3.5 2.5-.5 1.5-1.5-3.5 1.5-.5q1.2 2.3 2.5-.5l-1-2 .5-2.5ZM456.5 294l.5 10 9 .5-8.5 1.5q-3.5-3.7-1-12ZM679.5 294l1 2q-2.8.7-1-2Z"/><path fill="#FEFEFE" stroke="#FEFEFE" d="m278.5 296 4.5 2.5-3.5-.5q-2.8.7-1-2ZM551.5 296l2.5.5-2.5.5v-1ZM577.5 296l2.5.5-2.5.5v-1ZM598.5 296l3.5 1.5-1.5-.5q-3 .5-2-1ZM611.5 296l4.5.5-4.5.5v-1ZM688.5 296l2.5.5-2.5.5v-1ZM277.5 299l2.5 1.5-1.5.5-1-2ZM484.5 299l1 2-1-2ZM503.5 299l.5 3.5h-1l.5-3.5ZM527.5 299l5.5 1.5-3.5 1.5-2-3ZM551.5 299l1.5 3.5-2.5-1.5-6 1-2-1-2 1-3-1h-2l-1.5-.5 16.5-.5 1-1ZM649 299l2 .5-1 2v2l-1.5 2.5-.5-3 2-.5-1-3.5ZM255.5 300l.5 3-2-.5 1.5-2.5ZM257.5 300q3.8-1 2.5 2l-2.5-2ZM360.5 301l55.5.5-55.5.5v-1ZM556.5 301l.5 2.5h-1l.5-2.5ZM609.5 301l.5 3h26.5l.5 1.5 1.5-.5 3.5.5-4.5 1.5-3-1-1.5.5.5-1.5-3 1-1-1H619q1 3-2 2 1-3-2-2l1 2.5-1.5-.5q-5 .5-5.5-3.5l.5-2.5ZM664.5 301l1.5 2.5-2-1 .5-1.5ZM703.5 301l.5 2-2.5 1 2-3ZM252.5 302l-1 2 1-2ZM271.5 302h2q4.2-1.3 2.5 3.5h-1V304h-4l.5-2ZM278.5 302q3.8-1.2 2.5 2.5l-3.5 1.5v-1q3.8 1 2.5-2l-2.5 1 1-2ZM487.5 302l1 2-1-2Z"/><path fill="#FEFEFE" stroke="#FEFEFE" d="m267.5 303 2 5 2.5-1.5-.5-1.5q3.3-1.1 2.5 1.5 1.3 2.8 2.5.5l1.5.5-2 .5v3q-2.7-1.1-2 1.5h2l-.5 3.5-4.5-7-3.5-2-2.5 1.5.5-2.5 1.5.5-1-2 1.5-1.5Zm5.5 4q-2 3 1 4l1-2h-1l-1-2ZM359.5 303l.5 16.5h-1l.5-16.5ZM601.5 303l-.5 1.5 1 2-2 .5-.5-2h-2l-12 1q-1.5-2.5-7-1l.5 1.5q.7 2.6-2 1.5 1.8-4.5-3.5-3h-2l-5 1 1-2h33l1-1ZM667 303l2 .5-3 2 1-2.5ZM709 303l2 .5-2 1V303ZM491.5 304h10l.5 2q-3.4-1.7-10.5-1l-2 3-.5-3 2.5-1ZM516 304h37.5l.5 2-7.5-1-3 1q-1.2-2.2-2.5.5l-.5 1.5-.5-3h-22.5l-2 2 .5-1.5V304ZM673.5 304h16l1 1h7.5l-.5 3-6-2-2.5 1.5 1-2.5h-7.5l-1.5 1.5q.7 2.6-2 1.5l-.5-2q-1.5 2.5-3-1l-6 2-.5-2 4.5-1ZM721.5 304q6.8-1.8 8.5 1.5l-1 2.5-3-.5q2.2-1.2-.5-2.5H722q1 3-2 2l1.5-3ZM755.5 304l1.5.5-3.5 1.5v-1l2-1ZM764.5 304l.5 1.5-2 1 1.5-2.5ZM774.5 304l1 2-1-2ZM251.5 305q3.3-1.1 2.5 1.5l-2 1 .5-1.5-1-1ZM518.5 306l1 2-1-2ZM297.5 307l1 2-1-2ZM311.5 309l21 22-9-9H322v-1.5l-9.5-9.5q-2.8.7-1-2ZM709.5 309l1 2-1-2ZM727.5 312l1 2-1-2ZM298.5 313l1 2-1-2ZM418.5 313l.5 3.5h-1l.5-3.5ZM617.5 313l.5 2h12.5l1-1 1 1h8l7 6 .5-1.5-.5-1.5 3.5.5-1 2 1 1-1.5 2.5 1.5.5-1 3v2q-1.2 5.8-6 8l2 1q-2.7 1.8 1.5 3.5l.5-2 2.5-1-.5 1.5-1 3q3.8 1.8.5 3.5l.5-1.5-7.5-8.5 5.5-4.5 1-8-5.5-6.5-3-2-30.5-.5 7-.5.5-2ZM650.5 313l-1 2 1-2ZM667.5 313l2.5 1.5q-1.7 3.3-8.5 1.5l1-2 4.5 1 .5-2ZM680.5 313l-.5 1.5 2 3v30l-2 1 1-1v-12h-2l2-4q.7-5.3-3-6l2-.5.5 2 .5-9.5h-2l-1-3 2.5-1.5ZM695.5 313l2.5.5-.5 1.5h11l.5-2h1.5v2q7 1.5 6.5-1.5h1l-.5 2.5h-34v-1l5-1q1.5 2.5 7 1v-2ZM732.5 313q2.6-.7 1.5 2h3.5l1.5-.5v2l-.5 2.5-.5-3-8-.5 3-1-.5-1.5ZM270.5 314l1.5 1.5-.5 2.5q-2.5-1-1-4ZM466.5 315l28.5.5-29 .5-.5 2-1-2 2-1ZM521 315h11.5l2.5 2.5 1 2-2-1q.8-2.2-1.5-1.5l-1-1h-9l-1.5.5V315ZM559.5 315h31l3.5 2-.5 2-4-3h-30v-1ZM555.5 316l1.5 1.5v30h-1v-30l-.5-1.5ZM462.5 317l-.5 1.5-.5 1.5-.5-1.5 1.5-1.5ZM519.5 317l1 2-2.5 1.5-11.5 20.5.5-1.5 12.5-22.5ZM608.5 317l.5 31.5h-1l.5-31.5ZM670.5 317l.5 31.5h-1l.5-31.5ZM719.5 317l1.5 5.5-2-1 .5-4.5ZM728.5 317l.5 28.5h-1l.5-28.5ZM458.5 318l1.5 3.5h-1l-.5-3.5ZM497.5 318l.5 4.5h-1l.5-4.5ZM658.5 318l.5 29.5h-1l.5-29.5ZM275.5 319q3 1.5 0 3v-3ZM418.5 319l.5 47.5h-1l.5-47.5ZM595.5 319q3.5 2 2.5 8.5l-3 4 1 2.5-2-.5.5-1.5-2.5-.5 4-2 1-7q-3-1-1.5-3.5ZM536.5 321l1.5 3 2 .5-1.5 3.5-.5-2.5-1.5-4.5ZM391.5 322l-.5 1.5-.5 22.5-1-1-46.5-.5 47-.5v-19h-25.5l-4.5-.5 29.5-.5 2-2ZM457.5 322v3l-1.5-.5-.5 2.5-.5-2.5 2.5-2.5ZM248.5 324l1 2-1-2ZM470.5 324l1 1 23.5.5-24.5.5-3 3-.5-1.5 3-1.5.5-2ZM568.5 324l1 1h14l1.5-.5 1 2-1.5 2.5-1-1h-14l-1.5.5.5-4.5Zm1.5 2v1h14l-14-1Z"/><path fill="#FEFEFE" stroke="#FEFEFE" d="m620.5 324 1 1H637l-.5 2-1-1H621l1 4.5-2 1 .5-7.5ZM693.5 324l1 1 23.5.5-24 1 20 1-19.5.5-1 1v-5ZM738.5 324l.5 8.5h-1l.5-8.5ZM494.5 327l-1 2-17.5-.5 17.5-.5 1-1ZM526 327q2.7-1.1 2 1.5l2 3-2-1q.8-2.2-1.5-1.5l-1.5.5 1-2.5ZM454.5 328q-1.1 14.1 7 19l5.5 2.5-2.5.5-8.5-7.5q-3.6-5.2-1.5-14.5ZM540.5 328l3.5 5.5-2 1v-2l-1.5-4.5Z"/><path fill="#FEFEFE" stroke="#FEFEFE" d="m634.5 328 2.5.5-1.5 2.5-2-1v2l-1-1-9.5-.5 3.5-1.5 5 1 3-2ZM497.5 330l.5 15.5-2 1 1-1 .5-15.5ZM523.5 330l1.5 3 6.5-1v3q-1.7-2.7-8-1l-1.5.5.5-2.5 1.5.5-.5-2.5ZM679.5 330l-1 2 1-2ZM715.5 330l.5 4.5h-1l.5-4.5ZM323.5 332l10 9 1.5-.5q-.7 2.3 1.5 1.5l5.5 1.5-4.5 1.5-1-2-1 1q-2.3-4.2-4.5-2.5l-7.5-9.5ZM473.5 333l1.5 3.5-2-1 .5-2.5ZM649.5 334l1.5.5-2.5 1.5 1-2ZM291.5 335l6.5 5.5-5.5-4.5-1-1ZM544.5 335l4.5 7.5-2-1-2.5-6.5ZM568.5 335l1 1h14q1.7-2.7 3.5 1.5l-1.5.5-3-1h-13l-.5 4 14 .5-13.5.5q-3.1-1.6-1-7ZM597.5 335l-1 2 1-2ZM693.5 336l1 1h16l2.5.5-2.5.5h-13l-2 2-1-2-1.5.5.5-2.5ZM467.5 337l4.5 2.5q-1.2 2.8-2.5.5-2.2.8-1.5-1.5l-.5-1.5ZM485.5 337l.5 3.5h-1l-.5-1.5h-8v-1h8l1-1ZM598.5 337l.5 4.5h-1l.5-4.5Z"/><path fill="#FEFEFE" stroke="#FEFEFE" d="m585 339 2 .5-2 1V339ZM620.5 339l1 1h8l1-1 3 3 1.5.5-1 1 4.5 4.5h1.5l.5 2h10l-1 2-1-1h-8l-3.5-2-5.5-8H621v6.5h-1l.5-8.5ZM742.5 339l17.5.5-17.5.5v-1ZM693.5 340l-1 2 1-2ZM475.5 341l3.5.5-3.5.5v-1ZM505.5 342l-.5 1.5-1.5 2.5.5-1.5 1.5-2.5ZM518.5 342l1 1h17l1.5.5v2l1 3h-1l-2.5-4.5h-17l-1.5 1.5-1.5 2.5.5-1.5 2.5-4.5ZM719.5 342q2.8 1.3.5 2.5l-.5 3.5v-6ZM764.5 342l.5 3.5h-1l.5-3.5ZM597.5 343l-1 2 1-2ZM306.5 344l.5 1.5-1 1 7 7 1 2-2 1v-2l-6.5-7.5q-1.2 2.3-2.5-.5l3-1 .5-1.5ZM549.5 344l2.5.5q-2.1 3.3-2.5-.5ZM54.5 345l-1 2-1.5-.5 2.5-1.5ZM594.5 345q3 1.5 0 3l-5 2-1-2 2 1 3.5-2.5.5-1.5ZM55.5 347l.5 2-2-.5 1.5-1.5ZM309.5 347l5 6-5-6ZM489.5 348l2.5 1.5-1.5.5-1-2ZM540.5 349l1 1 8.5.5-10 .5.5-2ZM468.5 350l20.5.5-20.5.5v-1ZM504.5 350l9.5.5-9.5.5v-1ZM559.5 350l28.5.5-28.5.5v-1ZM610.5 350l7.5.5-7.5.5v-1ZM661.5 350l7.5.5-6.5 1.5-1-2ZM683.5 350l34.5.5-8.5 1.5-1-1h-25v-1ZM730.5 350l32.5.5-32.5.5v-1ZM258.5 355l.5 4.5h-1l.5-4.5ZM315.5 357l2 3-2-3ZM258.5 361l.5 4.5h-1l.5-4.5ZM319.5 361l2.5.5q-2.1 3.3-2.5-.5ZM709 361l2 .5-2 1V361ZM323.5 362l.5 2 2.5 1 1.5-.5q-.7 2.3 1.5 1.5l1.5-.5q-.7 2.3 1.5 1.5l1.5-.5.5 1.5h81v1h-61l-1 1-1-1h-19l-3-2q-1.5 2.5-3-1l-5.5-2.5 1.5-1.5ZM234.5 365l1.5 2.5-2 1 1-2-.5-1.5ZM54.5 366l-1 2-1.5-.5 2.5-1.5ZM709.5 366l1 2q-2.8.7-1-2ZM54.5 376l-1 2-1.5-.5 2.5-1.5ZM54.5 394l1 2q-2.8.7-1-2ZM55.5 404l-1 2 1-2ZM775.5 407l-1 2 1-2ZM54 410l2 .5-1.5 3.5-.5-4ZM710.5 418l.5 2-2-.5 1.5-1.5ZM709.5 423l1 2q-2.8.7-1-2ZM54.5 429l.5 2.5h-1l.5-2.5ZM709.5 438l1.5 2.5-2-1 .5-1.5ZM54.5 449l-1 2-1.5-.5 2.5-1.5ZM616.5 450l1 2-1-2ZM55.5 451l1.5.5-2.5 1.5 1-2ZM649.5 453q2.3-.7 1.5 1.5l-1.5-1.5ZM54.5 457l1 2-1-2ZM774.5 458l1 2-1-2ZM709.5 464l1.5 3q-3.5 1.1-1.5-3ZM616.5 466l1 2-1-2ZM648.5 466l1.5.5-2 .5-.5 2-.5-1.5 1.5-1.5ZM650.5 480l-1 2-1.5-.5 2.5-1.5ZM709.5 491l1 2q-2.8.7-1-2ZM617.5 501v3q-3-1.5 0-3ZM52.5 518l2.5 1.5-.5 1.5-.5-2-1.5-1ZM775.5 522l-1 2 1-2ZM54.5 527l-1 2-1.5-.5 2.5-1.5ZM709.5 527l1 2q-2.8.7-1-2ZM709 538l2 .5-2 1V538ZM650.5 542l-.5 1.5-.5 1.5-.5-1.5 1.5-1.5ZM54.5 553l1.5 2.5-2-1 .5-1.5ZM650.5 563l-.5 1.5-.5 1.5-.5-1.5 1.5-1.5ZM650.5 574l-1 2 1-2ZM53.5 602l1 2-1-2ZM103.5 615l-1 2 1-2ZM709.5 626l1 2q-2.8.7-1-2ZM55.5 628l-1 2 1-2ZM710.5 637l.5 2-2-.5 1.5-1.5ZM712.5 637l1 2-1-2ZM56.5 649l-1 2-1.5-.5 2.5-1.5ZM708.5 652l2.5 1.5-1.5.5-1-2Z"/><path fill="#FFF" stroke="#FFF" d="M0 0h1000v667H0V0Zm709 17v2l2-1-2-1Zm1 5q-2 3 1 2l-1-2Zm-60 47-1 3h1v-3Zm60 26q-2 3 1 2l-1-2ZM56 133l-2 2h2v-2Zm654 4 1 2q1-3-1-2Zm0 10q-2 3 1 2l-1-2Zm-1 16v2l2-1-2-1Zm0 26v2l2-1-2-1ZM54 202v2l2-1-2-1Zm656 33q-2 3 1 2l-1-2Zm-656 3v2l2-1-2-1Zm626 9-1 3h1v-3Zm-443 2-3 1v116l1 2 2-1h20v-65h2q2 1 1-2h-2l4-1-4-3 2-1-1-1 2-1-1-4v-2l2 1 1 3h2v-5h-1q1 2-2 1-5-2-2-3l-1-5 1-2-2-2h-2q-2 3-5 2l1 2 3-1-1 4 2 1-1 5 1 3-2 2 2 3q-4 2 0 4l-1 2v26l-1 1 1 4q-3 1-2-3h-2l1 3-2 5-1-1 1-1-2-4q2-1 1 2l2-1-3-4h2q1-3-1-2h-2q1 2-1 1l1-2-3-4 1-3v3l3-2-1-2 2-1-3-1 4-2q-5-1-7-4l1 3-1 5h-1l1-5-4-1v3l-1-4h2l2-1 1-2-2-1v2l-1-3 4 1v-2h-1l-3-4h2l3-1-2 3 2 2-1 3q0 4 3 4l6-1-6-3 1-4-2-3 2-3-2-1q-1-3 2-4l-1-1h-2l1-2-1-1 3-1-1-1 1-2q2 1 1-1h-1v-1l-1-2-2-2q-2 3-3-1l-1 3-2 1h2l-2 8h-1l1-4-1-6v-2h3l-2-2v-3l1 3q1 2 3 0l1 1-2 1h4l3 1v-1l1-2q-6 2-5-1l4-2-3-3v-1l2 1 2-3q-2-5-3-2l-1-2 19 18h-2v-2l-2 5 3 1 2-3 3 1v3l-1-1h-1q-1 4 4 2v-2l1 4q-1 2 2 1h2l11 12-1 1 2 5q1 2 3 0 2-1 1 2h2l1 3h-4v-4l-1 2-1-2-4 5q-1 2 2 1 1-4 3 0v1l-1-2-3 4h-2v4h-1l-3-6-2 1q-4 1-2-4h-1l-3-6-3 2h2l2 4-8-7 1-3-3-2-3 1 3 6h2q-1 2 2 1v2h2l21 20 22 24 2-1 9 8 1 3h2l-2-1 2-1 1 3 2-1 1 1-2 1q2 3 4-1l1 1-2 1 3 1h19l1 1 1-1h61l-81-1v-1h82v-64h-57l-1 1v18l2 1 29 1-30 1h30v19l-47 1h47v1h-46l-6-1 4-1v-1l-5 1v-1l-2-1v-2l-1 3-1-3-2 1-71-69-3-2-20-21Zm108 1v1h3l-3-1Zm51 0-1 1h-46l-6 2-4-1v2l-2-1v2l-2 1v-1l-1-1q-3 1-1 3l-4 3v-1l-1-1q-3 1-1 3-12 8-15 26v21l1 2 20 19h1l-1-2v-36q2-9 8-14l-1 2h2l2-4-1 2h2q2-1 0-2h5l-3-1 4-2h65l1-1v-18l-1-3-3 1h-16l-1-1Zm314 1q-2 3 1 2l-1-2Zm-291 3-1 17h1v-17Zm-363 5-2 2h2v-2Zm559 7-1 3 2-1 2 1-3 1-2-1q-3 1-1 3l-4 7 2 6 5 4 4 1h19q3 1 2 5l-4 2h-9l-1-1-5 1h-2l-7-1-2 2-1 6q2 4 4 1l1 1h-1v1q3 1 2-2 3-1 2 2 3 1 3-2h12l3 1q3 1 2-2l7-1 2 1-1-1q1-3 3-1l2-5-1-9-4-5-4-1h-19l-1-1q-3 1-2-3h28l-26-1 27-1 1-7 1 7v-4l1-6q-4-1-3 2h-28l-1-2-2 1-2-1Zm83 0q-2 3 1 2l-1-2Zm-229 1-1 1h-11l-1 3v18l1 1-1 3v2q-2 8 2 11 1-3 8-1l1-1 1-23 24 24q7-1 10 1v-38h-8l-2 2v22l-16-15q1-3-1-2l-6-5v-3Zm264 0 1 2q1-3-1-2Zm-481 1q-2 3 1 2l-1-2Zm263 0v36l2 2 1-1h22l1 3v-1q1-3 3-1l3-1 7 1 1-2q1-7-1-8l-3 1h-25v-6h13v-2l3 1h-2l1 2 5-1 3-2v-7h-22l-1-4h28l-27-1v-1h28q1 0 0-6l-1-2h-39Zm53 0-2 2v34q1 2 6 1h2q5-1 3 3 3 1 2-1v-2q5-1 7 1l12-1 2 1q-1 2 2 1l-1-1 1-2q1-7-1-8l-3 1h-14l-2-1h-2l-3 1-1-27q-2-4-8-2Zm99 0v2l-2-1q-3 1-1 3l-4 4-2 5v12l6 10 2-1 1 3 2-1 7 1 3 2q-1 2 2 1l-1-2h2l9-2h8l4-3-1 2h2l5-12q2-16-7-21-3 1-2-1h-1l-2-1h-26l-1 1-3-1Zm53 0v36l1 1-1 2q3 1 2-2h6l-1 3q3 1 2-1v-2l1-1v-23l2 1-1 1v21h2l-1-1v-16l2-4 1 3q-1 2 2 1l1 3 2-1v2l14 13 11 2 1-2v-34l-1-2h-8l-2 2v20l-1 1 2 2q-4 0-3-4h-1q-3-1-1-2l-19-19h-12Zm-666 1q-1 3 2 2 1-3-2-2Zm511 0-1 35h1v-35Zm154 0-1 36h1v-36Zm-465 1q-2 3 1 2l-1-2Zm250 1-1 3h1v-3Zm10 0-1 4h1v-4Zm-258 1-1 2 2 1-1-3Zm95 1v1h4l-4-1Zm-37 2-1 3h1v-3Zm-2 5-1 5h1v-5Zm216 0v1h2l-2-1Zm-279 1 1 2q1-3-1-2Zm399 0-1 4q4 1 3-1v-2l-2-1Zm-396 1v2l2-1-2-1Zm299 3-1 3h1v-3Zm-240 1-1 22h1v-22Zm177 0 1 2q1-3-1-2Zm-152 1-1 3h1v-3Zm-85 1v2l2-1-2-1Zm20 1-2 3h2q3-1 0-3Zm64 1-1 34h1v-34Zm280 0v2l3-1-3-1Zm-341 1-3 2 5 3v-4l-2-1Zm-9 1-1 4h1v-4Zm-14 1v2l2-1-2-1Zm492 1-1 3h1v-3Zm-494 1v2l2-1-2-1Zm30 1q-2 3 1 2l-1-2Zm-14 1-2 2 2 1v-3Zm8 0-1 2 4 2v-2l-3-2Zm-4 2 1 4 1-2-2-2Zm235 0-1 4h1v-4Zm145 0 1 3 1-2-2-1Zm-364 1q-2 3 1 2l-1-2Zm-35 1-2 2 2 1v-3Zm111 0v1h55l-55-1Zm196 0-1 3h1v-3Zm-285 1-1 2h4v2h1q2-5-2-4h-2Zm7 0v1q2-1 1 2h1q1-4-2-3Zm-11 1-2 2 1 2h1v-4Zm380 0v3l2-1q1-3-2-2Zm61 0v2l2-1-2-1Zm-457 2 1 1 1 1q1-3-2-2Zm20 0 2 4q2-1 0-2 1-3-2-2Zm6 0v1h2l-2-1Zm211 0 1 3 1-2-2-1Zm150 0v1h3l-3-1Zm30 0 1 2 3-1-4-1Zm21 0v2l2-1 5 1 1 1v-3h-8Zm-403 1-1 3h1v-3Zm-11 2-2 3h2v-3Zm36 1q-2 3 1 2l-1-2Zm107 4-1 4h1v-4Zm199 0q0 4-7 2v1h30l-8-1-1-1-1 1h-13v-2Zm50 0-1 2-4-1-1 2q6 2 8-1l-2-2Zm41 0v2h-13q-6 2-7-1l-5 1v1h34v-2h-1q1 3-6 1v-1l-2-1Zm24 0v2l-3 1h8v-1h-4q1-3-1-2Zm-462 1v3q3-1 0-3Zm408 0 1 4q2-1 0-2 1-3-1-2Zm-429 1 2 2q1 2 2 0l-4-2Zm217 0v1h28l-28-1Zm54 0v3h-2l1 2-16 28 1 1h9l4-7-1 2 1 1 1-1h19q3 2 2 7h10l-9-1 9-1-17-30 1-2-1-2h-12Zm39 0v1h30v1h-32v32h31l1-1 3 1 1-3-1 2h2q2-1 0-2l2-4q1-6-2-7l1-2h-1l-1-2 2-3q1-6-2-7 1-5-1-4v2q-3-1-1-2l-1-2h-31Zm-95 1v2h-3l-1 3-1-2-4 10q-1 9 2 14l4 4-1 1 3 1v-2l4 2h22l5-2 1-1v-17l-2 1h-18q-2 0-1 6l2 1 8 1-9 1h9v2h-13v-1l-3-2-1 2-3-5 1-7 3-3 2 1h24l-23-1v-1h24v-7h-29l-2-1Zm177 0v2l-1-1h-31v32h9l1-10 1 9v-7h9l1 1q2-1 0-2l3 2-1-1-1 2q1 2 3 0l4 5-1-1-1 2 3 1 1-1h10v-1l-10-10 4 2 1-1-3-2 5-6-1-8-4-4 1-1-2-2Zm97 0-1 1h-8v32h33v-8h-24v-25Zm-457 1v1h2l-2-1Zm275 0-1 31h1v-31Zm52 0-1 32h1v-32Zm51 0v32h9v-32h-9Zm11 0-1 32h1v-32Zm11 0-1 10-1 1 1 4-1 3 1 1v12h1v-31Zm1 0v32h35v-8h-26l1-5v3l2-1 1 2 2-2h11l-15-1 15-1h5v-7h-20l20-1-20-1 24-1-24-1 25-1-1-1q1-6 0-6h-35Zm37 0-1 5h1v-5Zm9 0-1 29h1v-29Zm-231 1-1 5h1v-5Zm150 0v2l-1 2 2 2q2-1 0-2l2-3-3-1Zm11 0-1 30h1v-30Zm-383 1v3q3-1 0-3Zm143 0-1 48h1v-48Zm-96 1q-2 3 1 2l-1-2Zm-72 1q-2 3 1 2l-1-2Zm347 1-1 6h1v-6Zm-142 2-1 3h1v-3Zm82 0v2l2-1-2-1Zm111 0 1 7v-3l1-3-2-1Zm30 1 1 2q1-3-1-2Zm-210 1-2 3 3-2-1-1Zm-14 2-1 10h1v-10Zm22 0v1h17l-17-1Zm21 2-1 16h1v-16Zm218 0-1 5h1v-5Zm-242 3-1 3h1v-3Zm176 1-1 2 2-1-1-1Zm-51 3-1 5h1v-5Zm112 0v1h2l-2-1Zm-255 1-1 3h1v-3Zm287 1v1h17l-17-1Zm-95 1v2q-2 1 1 2l1-2q1-3-2-2Zm72 2v6-3q2-2 0-3Zm45 0-1 7h1v-7Zm-709 5-2 2h2v-2Zm409 2v1h2l-2-1Zm4 1v1h20l-20-1Zm36 0v1h9l-9-1Zm55 0v1h28l-28-1Zm51 0v1h7l-7-1Zm30 0v1h8q1 2 2 0l-10-1Zm21 0 1 2 6-1-7-1Zm22 0v1h25l1 1 8-1-34-1Zm47 0v1h32l-32-1Zm-472 5-1 5h1v-5Zm0 6-1 5h1v-5Zm450 0v2l2-1-2-1Zm1 5q-2 3 1 2l-1-2ZM55 394q-2 3 1 2l-1-2Zm-1 16 1 4 1-3-2-1Zm657 8-2 2h2v-2Zm-1 5q-2 3 1 2l-1-2Zm-655 6-1 3h1v-3Zm655 9-1 2 2 1-1-3ZM56 451l-1 2 2-1-1-1Zm594 2 1 2q1-3-1-2Zm60 11q-3 4 1 3l-1-3Zm0 27q-2 3 1 2l-1-2Zm0 36q-2 3 1 2l-1-2Zm-1 11v2l2-1-2-1Zm1 88q-2 3 1 2l-1-2Zm1 11-2 2h2v-2ZM244.5 264l-1 2 1-2ZM238.5 265l-2 3 2-3Z"/><path fill="#FFF" stroke="#FFF" d="M458.5 270h9l19.5 19.5-3.5-2.5-1.5 1.5-1.5 2.5-7.5-7.5 1-1q.8-2.2-1.5-1.5h-2l-3.5-3.5h2q.8-2.6-2.5-1.5l-2.5-1-.5 2-.5-3.5 5-2-9.5-.5v-1Zm10.5 2 1 6 3 1 1-1-5-6Zm8 8q-2 3 1 2l-1-2Zm1 6 1 2q1-3-1-2Zm3 1-1 3h1v-3ZM517.5 270l.5 32.5h-1l.5-32.5ZM519.5 270l26.5.5-26.5.5v-1ZM547.5 270l3.5.5-3.5.5v-1ZM568.5 270l.5 32.5h-1l.5-32.5ZM620.5 270l9.5.5-9.5.5v-1ZM634.5 270l9.5.5-9.5.5v-1ZM671.5 270h24l5.5 2.5-.5 1.5 2-1-.5 1.5q1.1 3.3-1.5 2.5l-1.5-.5q-.9 3 3.5 1.5v1l-1.5.5 2 1-2 .5 1 5.5-1 4 3 4-2 3h2l-2.5 2.5-2.5-1.5 1 2-2 1v-6l2-3q-1.3-4.8 1-6-2.3-1.3-1-6l-3.5-4.5-3.5-1.5 1.5-.5 2 1-.5-1.5-.5-2.5h-24v-1ZM723.5 270l7.5.5-7.5.5v-1ZM243.5 271l.5 1.5-2 1 1.5-2.5ZM668.5 271l5.5 3.5-6 4-2.5 7.5-.5-1.5 1-4-.5-1.5 3.5-2.5-3-.5 1-2.5-.5-1.5 2-1Zm-.5 1v2l2-1-2-1Zm3 1-2 2 1 1 2-1-1-2ZM460.5 272l1 2-1-2ZM494.5 272l1 12 2-1v1l-2.5 1.5.5 4.5 2-3 .5 1.5-3 4h2l-.5 2.5-2.5-.5.5-22.5ZM499.5 272l.5 24.5h-1l-1-2 1-1v-20l.5-1.5ZM520 272l5.5 1 2-1 3 1 3-1 4 1h2l3-1-1 2q-6.3 1.8-8-1l-1 1H524v10h22.5v1l-15 1-2-1h-2l-3.5.5v13h-1l-.5-5.5q-2.7 1.3-.5 2.5l-1 5.5 2.5-1 1 2-5.5-.5 2-5-2-3 1-3-1-4 1-2-1-2h2q.8-2.2-1.5-1.5l.5-1.5 1-2-2-.5 1-5Zm2 4-1 3 1 2q1 5-2 6h2q4-2 1-3v-7l-1-1Zm1 13-1 3h1v-3ZM547.5 272l3.5 1.5-6.5.5v-1l3-1ZM571.5 272l.5 1.5-2 1 1.5-2.5ZM613.5 272l-1 2 1-2ZM636.5 272l7.5 1.5-9.5.5v-1l2-1Z"/><path fill="#FFF" stroke="#FFF" d="m682 272 4.5 1h2l2.5.5-9 .5v-2ZM617.5 273l-1 2 1-2ZM620.5 273l12.5.5-12.5.5v-1ZM664.5 273l-1 2 1-2ZM675.5 273l2.5.5-2.5.5v-1ZM728.5 274l2.5.5q.8 2.3-1.5 1.5l-2.5-.5 1.5-1.5ZM734.5 274l19 20-1.5-.5-1 2 2 1-2 1 3.5 4.5-13-14 3.5 2.5-1-2 1-1-2.5-4.5-3 4-7.5-7.5 1.5-1.5q2.3-.7 1.5 1.5l-1 1 5.5 5.5 2.5-3.5-8-6.5.5-2Zm12.5 18 2 3 1-1q1-3-3-2ZM675.5 276h16l2 2q1.8-2.8 3.5 1.5h-2l1.5 2.5 1.5-.5v10l-4 .5v1.5l-.5 2.5-16 1-5-1-2.5-2.5.5-1.5q-3.4.9-1.5-4.5l-1-3 4.5-7.5 3-1Zm2.5 1 2 3v-2h10l-12-1Zm-8 7-1 3h1v-3Zm10 10q-2 3 1 2l-1-2ZM460.5 277l2.5 1.5-1.5.5-1-2ZM464.5 278l.5 2.5h-1l.5-2.5ZM705.5 278l.5 2.5h-1l.5-2.5ZM236.5 280l.5 4.5h-1l.5-4.5ZM460 280l3 .5-2 .5q1 3-2 2v2.5h-1l2-5.5ZM727.5 280l.5 18.5h-1l.5-18.5ZM243.5 281v2l2.5 1.5-3 1 1 2-3-2 2.5-4.5ZM660.5 282l.5 3.5h-1l.5-3.5ZM706.5 282l.5 7.5h-1l.5-7.5ZM761.5 282l.5 2.5-2-1 1.5-1.5ZM724 283q3-1 2 2-3 1-2-2Z"/><path fill="#FFF" stroke="#FFF" d="M460.5 284q3.3 1.2 2.5 5l-2 .5 1.5 2.5-1.5-.5.5 2.5 1.5-.5-.5 3.5-2.5-1 1-5.5-1-4 .5-2.5ZM573.5 284l-1 2 1-2ZM612.5 284l1 2-1-2ZM622.5 284l10.5.5-10.5.5v-1ZM635.5 284l3.5.5-3.5.5v-1ZM236.5 286l.5 3.5h-1l.5-3.5ZM761.5 286l.5 3.5-2-1 1.5-2.5ZM571.5 287l1 2-1-2ZM666.5 288l.5 2.5h-1l.5-2.5ZM240.5 289l2.5.5q-2.1 3.3-2.5-.5ZM702.5 289q3.3-1.1 2.5 1.5l1 3h-1l-1.5-3.5-1-1ZM722.5 290l.5 4.5h-1l.5-4.5ZM236.5 291l3.5.5-3.5.5v-1ZM485.5 291l.5 2 2.5 1q1.3-2.2 2.5.5.8 2.3-1.5 1.5l-5.5-1.5 1.5-3.5ZM570.5 291q2.3-.7 1.5 1.5l1.5 2.5-2.5-.5-.5-3.5ZM661.5 292l.5 2.5h-1l.5-2.5ZM236.5 293l2.5.5.5 1.5 1.5-.5v1.5h-2q1.1 2.7-1.5 2l-1.5.5 2-3h-2l.5-2.5ZM242 293l3 .5-2 .5q-1.1 2.7 1.5 2l-1 2-1.5-.5V293ZM696.5 293l-1 2 1-2ZM662.5 296l1 2-1-2ZM722.5 296l.5 2.5h-1l.5-2.5ZM489 297h3v3q2.7-1.1 2 1.5l-3-1-.5 1.5-3-4 1.5.5V297ZM571.5 297l2.5 1.5-1.5 2.5.5-1.5q.8-2.2-1.5-1.5v-1ZM756.5 297q3 1.5 0 3v-3ZM552.5 298l.5 3.5h-1l.5-3.5ZM644.5 298q3 1.5 0 3v-3ZM669.5 298l1 2-1-2ZM238.5 299l1.5 5.5-2 .5-2-4.5h1l.5 1.5 1-3ZM525.5 299l2 1 1-1h22v1l-16.5.5 2 1-4.5.5v-1l1.5-.5-4.5-.5v2q-3.3 1.1-2.5-1.5l-.5-1.5ZM580.5 299l8.5.5-8.5.5v-1ZM590.5 299l7.5.5-7.5.5v-1ZM627.5 299l2.5.5-2.5.5v-1ZM682 299h6l.5 2h7v1h-13l-.5-3Z"/><path fill="#FFF" stroke="#FFF" d="m537.5 301 2.5.5-2.5.5v-1ZM547.5 301l3.5.5-3.5.5v-1ZM583.5 301l4.5.5-4.5.5v-1ZM589.5 301l3.5.5-3.5.5v-1ZM594.5 301l2.5.5-2.5.5v-1ZM635.5 301l5.5.5-5.5.5v-1ZM670.5 301l2.5.5-2.5.5v-1ZM288.5 303l1 2-1-2ZM236.5 305l.5 3.5h-1l.5-3.5ZM293.5 307l14 15q-2.2-4.2-4.5.5l-2 3h2l1 2-3 .5v7.5l-2.5 2.5q-4.2-1.7-1.5-3.5l-2-7 2-1-3-2-.5-1.5-2.5 1.5.5-2.5 1.5.5-1.5-2.5-2 1-.5-2.5 1.5.5 2 1 1.5-.5-.5 1.5q3-.9 1.5 3.5h1l-.5-8.5-.5 2-2-.5.5-1.5-2.5-.5 2.5-.5q1.3 2.3 2.5-.5l1-3-3.5-4.5Zm8.5 9v3q3-1 0-3Zm-1 5v2l2-1-2-1Zm-1 12-3 3q2 3 3 0v-3ZM236.5 312l.5 4.5h-1l.5-4.5Z"/><path fill="#FFF" stroke="#FFF" d="m240.5 315-.5 1.5 1 2h-2l1 3-1 4q2.3 1.3-.5 2.5l-1-3q-2.6.8-1.5-2.5h2q-1.5-7 1.5-6.5l1-1ZM522.5 316l9.5.5-9.5.5v-1ZM242.5 319l.5 2.5h-1l.5-2.5ZM285 319q3.7-1.5 3 1.5h-3V319ZM285.5 322q3.3-1.1 2.5 1.5l-1 2 .5 1.5-3.5-3.5 1.5-1.5Z"/><path fill="#FFF" stroke="#FFF" d="m240.5 323 3.5 1.5-1.5 2.5-2-4ZM305.5 323l3.5 2-.5 2q-1.5-3.5-3-1l-1.5-.5 2-1-.5-1.5ZM391.5 323l.5 22.5h-1l.5-22.5ZM567.5 324l.5 4.5h-1l.5-4.5ZM569.5 324l14.5.5-14.5.5v-1ZM619.5 324l.5 7.5h-1l.5-7.5ZM621.5 324h15l1.5 1.5q1 4.5-1.5 5.5l.5-1.5-.5-1.5-3 1-6 1h-2l-2.5.5 9.5.5 2-1v1l-2 1h-11l-.5-2.5.5-3.5h14l1.5.5-.5-1.5h-15v-1ZM692.5 324l.5 4.5h-1l.5-4.5ZM526 325q2.7-1.1 2 1.5l5 8-2.5.5q-6.2 1.7-8-1l-1.5.5 5-9.5Zm0 2q-1 3 2 2 1-3-2-2Zm-1 4-1 2v1h7l-6-1v-2ZM569.5 326l14.5.5-14.5.5v-1ZM293.5 327l-1 2 1-2ZM306.5 327l2.5 1.5-1.5.5-1-2ZM242.5 328l1.5 2.5-3 2 1.5-4.5ZM310.5 328l3 1 1.5-.5-1 1 1.5 2.5-1.5-.5-.5 3.5-3.5-5.5.5-1.5ZM569.5 328l14.5.5-14.5.5v-1ZM245.5 330l2.5.5-2.5.5v-1ZM302.5 331l1 2-1-2ZM293.5 332l1 2-1-2ZM315.5 333l.5 5.5h-1l.5-5.5ZM253.5 334l1.5 1.5-.5 2.5-2.5-.5 1.5-3.5ZM567.5 335l.5 6.5h-1l.5-6.5ZM569.5 335l14.5.5-14.5.5v-1ZM312 336q3-1 2 2-3 1-2-2ZM486.5 337l.5 3.5h-1l.5-3.5ZM569 337h13.5l1 1h2q3.3-1.1 2.5 1.5l-2 1 .5-1.5H585l-.5 2H569v-4ZM621.5 339l8.5.5-8.5.5v-1ZM519.5 342l15.5.5-15.5.5v-1Z"/><path fill="#2BC78D" stroke="#2BC78D" d="M348.5 252h67l.5.5V271h-63.5l-5 1-8.5 5-6 10.5-.5 40.5-19.5-19.5v-25q4.2-15.3 15.5-23.5 8-6 20-8Z"/><path fill="#2BC78D" stroke="#2BC78D" d="M360 304h56v63h-77.5l-9-2-7.5-4.5.5-26.5q4.9 7.6 14 11l3 1h16l1 1 1-1H393v-24h-33v-18ZM469.5 317h25l.5.5v6.5h-25.5l-3.5 2.5q-2.5 3.5-1 11l5.5 4.5h16q2.8-1.4 1.5-6h-12v-6h19v15.5l-4.5 2.5h-24q-6.1-1.4-8.5-6.5l-2-11 3-8 2.5-2.5 8-3ZM522.5 317h9l1.5 1.5 16 29.5h-8.5l-.5-1.5-3.5-5.5-1 1h-17q-1.2-2.2-2.5.5l-2 5.5h-7.5l-1 1-.5-2.5 17.5-29.5Zm3.5 7-5 11v1h13l-6-10q1-3-2-2ZM559 317h27.5l6 2 2.5 2.5 1 4-3.5 5.5-1.5.5 4 3 1 8-2.5 3.5-4 2H559v-31Zm8 6v7l19-1 1-3-2-3h-18Zm0 12v7h20q2-1 1-4l-2-3h-19ZM611.5 317h26l4 1 4.5 3.5q2.3 3.2 1 10l-6 4.5 1 3.5 8 8-11 .5-7.5-10H618v10h-8v-29.5l1.5-1.5Zm6.5 6v9h19q3-1 2-6-8-4-21-3ZM661 317q6.1-1.7 8 1.5v29l-.5.5H661v-31ZM684.5 317h33l.5.5v5.5h-26.5q-1.1.1-.5 5.5 1.3 2.8 2.5.5l2 1q1.5-2.5 7-1l3 1 2-1 5.5 1-.5 5H691v7h26.5l.5.5v5.5h-35v-29.5l1.5-1.5ZM731.5 317q6.3-.7 6.5.5V342h24.5l.5.5v5.5h-33v-27.5l1.5-3.5Z"/></svg>